<svg width="1080" height="1080" viewBox="0 0 1080 1080" fill="none" xmlns="http://www.w3.org/2000/svg">
<rect width="1080" height="1080" rx="120" fill="#0A0A0A"/>
<path d="M385.052 811C363.768 811 344.341 805.845 326.773 795.536C309.204 785.058 295.184 771.03 284.71 753.454C274.237 735.708 269 716.273 269 695.147C269 673.683 274.237 654.163 284.71 636.587C295.184 619.01 309.204 604.983 326.773 594.504C344.341 584.026 363.768 578.787 385.052 578.787H437.757V500.706H385.052C363.768 500.706 344.341 495.552 326.773 485.242C309.204 474.764 295.184 460.821 284.71 443.413C274.237 425.837 269 406.317 269 384.853C269 363.558 274.237 344.123 284.71 326.546C295.184 308.97 309.204 295.027 326.773 284.718C344.341 274.239 363.768 269 385.052 269C406.337 269 425.764 274.239 443.332 284.718C460.9 295.027 474.921 308.97 485.395 326.546C496.037 344.123 501.358 363.558 501.358 384.853V437.329H579.149V384.853C579.149 363.558 584.301 344.123 594.605 326.546C605.079 308.97 619.1 295.027 636.668 284.718C654.236 274.239 673.747 269 695.201 269C716.486 269 735.912 274.239 753.481 284.718C771.049 295.027 784.985 308.97 795.29 326.546C805.763 344.123 811 363.558 811 384.853C811 406.317 805.763 425.837 795.29 443.413C784.816 460.821 770.795 474.764 753.227 485.242C735.828 495.552 716.486 500.706 695.201 500.706H642.749V578.787H695.201C716.486 578.787 735.828 584.026 753.227 594.504C770.795 604.983 784.816 619.01 795.29 636.587C805.763 654.163 811 673.683 811 695.147C811 716.273 805.763 735.708 795.29 753.454C784.816 771.03 770.795 785.058 753.227 795.536C735.828 805.845 716.486 811 695.201 811C673.747 811 654.236 805.845 636.668 795.536C619.1 785.058 605.079 771.03 594.605 753.454C584.301 735.708 579.149 716.273 579.149 695.147V642.164H501.358V695.147C501.358 716.273 496.037 735.708 485.395 753.454C474.921 771.03 460.9 785.058 443.332 795.536C425.764 805.845 406.337 811 385.052 811ZM385.052 747.623C394.681 747.623 403.465 745.257 411.405 740.525C419.513 735.793 425.933 729.455 430.662 721.512C435.392 713.568 437.757 704.78 437.757 695.147V642.164H385.052C375.424 642.164 366.639 644.614 358.7 649.515C350.76 654.248 344.426 660.585 339.696 668.529C334.966 676.472 332.601 685.345 332.601 695.147C332.601 704.78 334.881 713.568 339.442 721.512C344.172 729.455 350.507 735.793 358.446 740.525C366.555 745.257 375.424 747.623 385.052 747.623ZM385.052 437.329H437.757V384.853C437.757 375.051 435.392 366.263 430.662 358.488C425.933 350.545 419.513 344.207 411.405 339.475C403.465 334.743 394.681 332.377 385.052 332.377C375.424 332.377 366.639 334.743 358.7 339.475C350.76 344.207 344.426 350.545 339.696 358.488C334.966 366.263 332.601 375.051 332.601 384.853C332.601 394.486 334.881 403.359 339.442 411.471C344.172 419.415 350.507 425.752 358.446 430.485C366.555 435.048 375.424 437.329 385.052 437.329ZM642.749 437.329H695.201C704.83 437.329 713.614 435.048 721.553 430.485C729.493 425.752 735.743 419.415 740.304 411.471C745.034 403.528 747.399 394.655 747.399 384.853C747.399 375.051 745.034 366.263 740.304 358.488C735.743 350.545 729.493 344.207 721.553 339.475C713.614 334.743 704.83 332.377 695.201 332.377C685.403 332.377 676.535 334.743 668.595 339.475C660.656 344.207 654.321 350.545 649.591 358.488C645.03 366.263 642.749 375.051 642.749 384.853V437.329ZM695.201 747.623C704.83 747.623 713.614 745.257 721.553 740.525C729.493 735.793 735.743 729.455 740.304 721.512C745.034 713.568 747.399 704.78 747.399 695.147C747.399 685.345 745.034 676.472 740.304 668.529C735.743 660.585 729.493 654.248 721.553 649.515C713.614 644.614 704.83 642.164 695.201 642.164H642.749V695.147C642.749 704.78 645.03 713.568 649.591 721.512C654.321 729.455 660.656 735.793 668.595 740.525C676.535 745.257 685.403 747.623 695.201 747.623ZM501.358 578.787H579.149V500.706H501.358V578.787Z" fill="white"/>
</svg>
