<svg width="1080" height="1080" viewBox="0 0 1080 1080" fill="none" xmlns="http://www.w3.org/2000/svg">
<rect width="1080" height="1080" rx="120" fill="#0A0A0A"/>
<path d="M385.052 810.984C363.768 810.984 344.341 805.83 326.773 795.52C309.204 785.042 295.184 771.015 284.71 753.438C274.237 735.692 269 716.257 269 695.131C269 673.667 274.237 654.147 284.71 636.571C295.184 618.994 309.204 604.967 326.773 594.489C344.341 584.01 363.768 578.771 385.052 578.771H437.757V500.691H385.052C363.768 500.691 344.341 495.536 326.773 485.227C309.204 474.748 295.184 460.805 284.71 443.398C274.237 425.821 269 406.301 269 384.837C269 363.543 274.237 344.107 284.71 326.531C295.184 308.954 309.204 295.011 326.773 284.702C344.341 274.223 363.768 268.984 385.052 268.984C406.337 268.984 425.764 274.223 443.332 284.702C460.9 295.011 474.921 308.954 485.395 326.531C496.037 344.107 501.358 363.543 501.358 384.837V437.314H579.149V384.837C579.149 363.543 584.301 344.107 594.605 326.531C605.079 308.954 619.1 295.011 636.668 284.702C654.236 274.223 673.747 268.984 695.201 268.984C716.486 268.984 735.912 274.223 753.481 284.702C771.049 295.011 784.985 308.954 795.29 326.531C805.763 344.107 811 363.543 811 384.837C811 406.301 805.763 425.821 795.29 443.398C784.816 460.805 770.795 474.748 753.227 485.227C735.828 495.536 716.486 500.691 695.201 500.691H642.749V578.771H695.201C716.486 578.771 735.828 584.01 753.227 594.489C770.795 604.967 784.816 618.994 795.29 636.571C805.763 654.147 811 673.667 811 695.131C811 716.257 805.763 735.692 795.29 753.438C784.816 771.015 770.795 785.042 753.227 795.52C735.828 805.83 716.486 810.984 695.201 810.984C673.747 810.984 654.236 805.83 636.668 795.52C619.1 785.042 605.079 771.015 594.605 753.438C584.301 735.692 579.149 716.257 579.149 695.131V642.148H501.358V695.131C501.358 716.257 496.037 735.692 485.395 753.438C474.921 771.015 460.9 785.042 443.332 795.52C425.764 805.83 406.337 810.984 385.052 810.984ZM385.052 747.607C394.681 747.607 403.465 745.241 411.405 740.509C419.513 735.777 425.933 729.439 430.662 721.496C435.392 713.553 437.757 704.764 437.757 695.131V642.148H385.052C375.424 642.148 366.639 644.599 358.7 649.5C350.76 654.232 344.426 660.57 339.696 668.513C334.966 676.456 332.601 685.329 332.601 695.131C332.601 704.764 334.881 713.553 339.442 721.496C344.172 729.439 350.507 735.777 358.446 740.509C366.555 745.241 375.424 747.607 385.052 747.607ZM385.052 437.314H437.757V384.837C437.757 375.035 435.392 366.247 430.662 358.473C425.933 350.529 419.513 344.192 411.405 339.46C403.465 334.727 394.681 332.361 385.052 332.361C375.424 332.361 366.639 334.727 358.7 339.46C350.76 344.192 344.426 350.529 339.696 358.473C334.966 366.247 332.601 375.035 332.601 384.837C332.601 394.471 334.881 403.344 339.442 411.456C344.172 419.399 350.507 425.737 358.446 430.469C366.555 435.032 375.424 437.314 385.052 437.314ZM642.749 437.314H695.201C704.83 437.314 713.614 435.032 721.553 430.469C729.493 425.737 735.743 419.399 740.304 411.456C745.034 403.513 747.399 394.64 747.399 384.837C747.399 375.035 745.034 366.247 740.304 358.473C735.743 350.529 729.493 344.192 721.553 339.46C713.614 334.727 704.83 332.361 695.201 332.361C685.403 332.361 676.535 334.727 668.595 339.46C660.656 344.192 654.321 350.529 649.591 358.473C645.03 366.247 642.749 375.035 642.749 384.837V437.314ZM695.201 747.607C704.83 747.607 713.614 745.241 721.553 740.509C729.493 735.777 735.743 729.439 740.304 721.496C745.034 713.553 747.399 704.764 747.399 695.131C747.399 685.329 745.034 676.456 740.304 668.513C735.743 660.57 729.493 654.232 721.553 649.5C713.614 644.599 704.83 642.148 695.201 642.148H642.749V695.131C642.749 704.764 645.03 713.553 649.591 721.496C654.321 729.439 660.656 735.777 668.595 740.509C676.535 745.241 685.403 747.607 695.201 747.607ZM501.358 578.771H579.149V500.691H501.358V578.771Z" fill="white"/>
<path d="M501.358 436.984V695.424C501.358 716.55 496.037 735.985 485.395 753.731C474.921 771.308 460.9 785.336 443.332 795.814C425.764 806.123 406.337 811.278 385.053 811.278C363.768 811.278 344.341 806.123 326.772 795.814C309.204 785.336 295.183 771.307 284.71 753.731C274.237 735.986 269 716.55 269 695.424C269 673.961 274.237 654.44 284.71 636.864C295.183 619.287 309.204 605.26 326.772 594.782C344.341 584.303 363.768 579.064 385.053 579.064H437.758V436.984H501.358ZM385.054 642.442C375.425 642.442 366.641 644.892 358.701 649.793C350.762 654.526 344.427 660.863 339.697 668.806C334.967 676.749 332.603 685.622 332.603 695.424C332.603 705.058 334.882 713.846 339.443 721.79C344.173 729.733 350.509 736.07 358.448 740.802C366.557 745.534 375.425 747.901 385.054 747.901C394.683 747.901 403.467 745.534 411.406 740.802C419.515 736.07 425.934 729.733 430.664 721.79C435.394 713.846 437.759 705.058 437.759 695.424V642.442H385.054Z" fill="#00BBFF"/>
</svg>
